<svg width="52" height="52" viewBox="0 0 52 52" fill="none" xmlns="http://www.w3.org/2000/svg">
<circle cx="26" cy="26" r="26" fill="#E0E0D8"/>
<g clip-path="url(#clip0_126_4427)">
<path fill-rule="evenodd" clip-rule="evenodd" d="M41.36 26.3635C41.36 25.229 41.2582 24.1381 41.0691 23.0908H26V29.2799H34.6109C34.24 31.2799 33.1127 32.9745 31.4182 34.109V38.1235H36.5891C39.6145 35.3381 41.36 31.2363 41.36 26.3635Z" fill="#4285F4"/>
<path fill-rule="evenodd" clip-rule="evenodd" d="M26.0013 42C30.3213 42 33.9431 40.5673 36.5904 38.1237L31.4195 34.1091C29.9868 35.0691 28.154 35.6364 26.0013 35.6364C21.834 35.6364 18.3068 32.8219 17.0486 29.04H11.7031V33.1855C14.3359 38.4146 19.7468 42 26.0013 42Z" fill="#34A853"/>
<path fill-rule="evenodd" clip-rule="evenodd" d="M17.0473 29.0399C16.7273 28.0799 16.5455 27.0545 16.5455 25.9999C16.5455 24.9454 16.7273 23.9199 17.0473 22.9599V18.8145H11.7018C10.6182 20.9745 10 23.4181 10 25.9999C10 28.5817 10.6182 31.0254 11.7018 33.1854L17.0473 29.0399Z" fill="#FBBC05"/>
<path fill-rule="evenodd" clip-rule="evenodd" d="M26.0013 16.3636C28.3504 16.3636 30.4595 17.1709 32.1177 18.7564L36.7068 14.1673C33.9359 11.5855 30.314 10 26.0013 10C19.7468 10 14.3359 13.5855 11.7031 18.8145L17.0486 22.96C18.3068 19.1782 21.834 16.3636 26.0013 16.3636Z" fill="#EA4335"/>
</g>
<defs>
<clipPath id="clip0_126_4427">
<rect x="10" y="10" width="32" height="32" rx="6" fill="white"/>
</clipPath>
</defs>
</svg>
