<svg width="52" height="52" viewBox="0 0 52 52" fill="none" xmlns="http://www.w3.org/2000/svg">
<circle cx="26" cy="26" r="26" fill="#E0E0D8"/>
<g clip-path="url(#clip0_126_4433)">
<path d="M34.5 10H17.5C13.3579 10 10 13.3579 10 17.5V34.5C10 38.6421 13.3579 42 17.5 42H34.5C38.6421 42 42 38.6421 42 34.5V17.5C42 13.3579 38.6421 10 34.5 10Z" fill="url(#paint0_radial_126_4433)"/>
<path d="M34.5 10H17.5C13.3579 10 10 13.3579 10 17.5V34.5C10 38.6421 13.3579 42 17.5 42H34.5C38.6421 42 42 38.6421 42 34.5V17.5C42 13.3579 38.6421 10 34.5 10Z" fill="url(#paint1_radial_126_4433)"/>
<path d="M26.0011 13.5C22.6064 13.5 22.1803 13.5149 20.847 13.5755C19.5163 13.6365 18.6079 13.8471 17.8131 14.1562C16.9909 14.4755 16.2935 14.9026 15.5988 15.5976C14.9034 16.2925 14.4763 16.9899 14.156 17.8117C13.846 18.6068 13.6351 19.5155 13.5752 20.8456C13.5156 22.179 13.5 22.6053 13.5 26.0001C13.5 29.395 13.515 29.8197 13.5755 31.153C13.6368 32.4837 13.8474 33.3921 14.1562 34.1869C14.4757 35.0091 14.9029 35.7065 15.5979 36.4013C16.2925 37.0966 16.9899 37.5247 17.8115 37.844C18.6069 38.1531 19.5154 38.3637 20.8459 38.4247C22.1792 38.4854 22.605 38.5002 25.9996 38.5002C29.3948 38.5002 29.8195 38.4854 31.1528 38.4247C32.4835 38.3637 33.3929 38.1531 34.1882 37.844C35.0101 37.5247 35.7065 37.0966 36.401 36.4013C37.0964 35.7065 37.5234 35.0091 37.8438 34.1873C38.151 33.3921 38.362 32.4835 38.4245 31.1532C38.4844 29.82 38.5 29.395 38.5 26.0001C38.5 22.6053 38.4844 22.1792 38.4245 20.8459C38.362 19.5151 38.151 18.6069 37.8438 17.8121C37.5234 16.9899 37.0964 16.2925 36.401 15.5976C35.7057 14.9024 35.0104 14.4752 34.1875 14.1564C33.3906 13.8471 32.4817 13.6364 31.151 13.5755C29.8176 13.5149 29.3931 13.5 25.9972 13.5H26.0011ZM24.8798 15.7526C25.2126 15.7521 25.584 15.7526 26.0011 15.7526C29.3388 15.7526 29.7342 15.7646 31.0522 15.8245C32.271 15.8802 32.9325 16.0839 33.3731 16.255C33.9565 16.4815 34.3724 16.7524 34.8096 17.19C35.2471 17.6275 35.5179 18.0441 35.745 18.6275C35.9161 19.0675 36.12 19.729 36.1755 20.9478C36.2354 22.2655 36.2484 22.6612 36.2484 25.9972C36.2484 29.3333 36.2354 29.7291 36.1755 31.0467C36.1198 32.2655 35.9161 32.927 35.745 33.3671C35.5185 33.9505 35.2471 34.3659 34.8096 34.8031C34.3721 35.2406 33.9568 35.5114 33.3731 35.738C32.933 35.9099 32.271 36.113 31.0522 36.1688C29.7345 36.2286 29.3388 36.2416 26.0011 36.2416C22.6634 36.2416 22.2677 36.2286 20.9501 36.1688C19.7314 36.1125 19.0699 35.9089 18.6289 35.7377C18.0456 35.5111 17.6289 35.2404 17.1914 34.8029C16.7539 34.3654 16.4831 33.9498 16.256 33.3661C16.0849 32.926 15.881 32.2645 15.8255 31.0457C15.7656 29.728 15.7536 29.3323 15.7536 25.9941C15.7536 22.6561 15.7656 22.2624 15.8255 20.9446C15.8812 19.7259 16.0849 19.0644 16.256 18.6237C16.4826 18.0404 16.7539 17.6238 17.1915 17.1863C17.629 16.7488 18.0456 16.4779 18.629 16.2509C19.0696 16.079 19.7314 15.8759 20.9501 15.8199C22.1032 15.7677 22.5501 15.7521 24.8798 15.7495V15.7526ZM32.6736 17.8281C31.8455 17.8281 31.1736 18.4994 31.1736 19.3276C31.1736 20.1558 31.8455 20.8276 32.6736 20.8276C33.5018 20.8276 34.1736 20.1558 34.1736 19.3276C34.1736 18.4995 33.5018 17.8276 32.6736 17.8276V17.8281ZM26.0011 19.5808C22.4561 19.5808 19.5819 22.455 19.5819 26.0001C19.5819 29.5452 22.4561 32.4181 26.0011 32.4181C29.5462 32.4181 32.4195 29.5452 32.4195 26.0001C32.4195 22.4551 29.546 19.5808 26.0009 19.5808H26.0011ZM26.0011 21.8334C28.3022 21.8334 30.1679 23.6988 30.1679 26.0001C30.1679 28.3013 28.3022 30.1669 26.0011 30.1669C23.6999 30.1669 21.8345 28.3013 21.8345 26.0001C21.8345 23.6988 23.6999 21.8334 26.0011 21.8334Z" fill="white"/>
</g>
<defs>
<radialGradient id="paint0_radial_126_4433" cx="0" cy="0" r="1" gradientUnits="userSpaceOnUse" gradientTransform="translate(18.5 44.4646) rotate(-90) scale(31.7144 29.4969)">
<stop stop-color="#FFDD55"/>
<stop offset="0.1" stop-color="#FFDD55"/>
<stop offset="0.5" stop-color="#FF543E"/>
<stop offset="1" stop-color="#C837AB"/>
</radialGradient>
<radialGradient id="paint1_radial_126_4433" cx="0" cy="0" r="1" gradientUnits="userSpaceOnUse" gradientTransform="translate(4.63988 12.3051) rotate(78.681) scale(14.1765 58.436)">
<stop stop-color="#3771C8"/>
<stop offset="0.128" stop-color="#3771C8"/>
<stop offset="1" stop-color="#6600FF" stop-opacity="0"/>
</radialGradient>
<clipPath id="clip0_126_4433">
<rect width="32" height="32" fill="white" transform="translate(10 10)"/>
</clipPath>
</defs>
</svg>
