<svg width="72" height="72" viewBox="0 0 72 72" fill="none" xmlns="http://www.w3.org/2000/svg">
<g clip-path="url(#clip0_126_5989)">
<path d="M36 0C16.118 0 0 16.118 0 36C0 55.882 16.118 72 36 72C55.882 72 72 55.882 72 36C72 16.118 55.882 0 36 0ZM48.4431 37.9083L30.4431 49.1583C30.0783 49.3857 29.6653 49.5 29.25 49.5C28.8743 49.5 28.4985 49.4066 28.1602 49.2176C27.4438 48.8211 27 48.0684 27 47.25V24.75C27 23.9316 27.4438 23.1789 28.1602 22.7824C28.8699 22.3824 29.7465 22.4089 30.4431 22.8417L48.4431 34.0917C49.1001 34.5037 49.5 35.2245 49.5 36C49.5 36.7755 49.1001 37.4964 48.4431 37.9083Z" fill="white"/>
</g>
<defs>
<clipPath id="clip0_126_5989">
<rect width="72" height="72" fill="white"/>
</clipPath>
</defs>
</svg>
