<svg width="40" height="40" viewBox="0 0 40 40" fill="none" xmlns="http://www.w3.org/2000/svg">
<rect width="40" height="40" rx="20" fill="#EBEBE9"/>
<path d="M32 22.2726C32.0037 20.6158 30.6798 19.2744 29.0558 19.2744C28.6507 19.2744 28.2644 19.358 27.9081 19.5062C27.6681 16.8159 25.4402 14.7031 22.721 14.7031C22.0534 14.7031 21.4083 14.8285 20.8345 15.0603C20.6057 15.1439 20.542 15.2275 20.542 15.4099V24.8983C20.542 25.0883 20.6882 25.2251 20.8645 25.2479H29.052C30.676 25.2479 32 23.9179 32 22.2726Z" fill="#2A3167"/>
<path d="M20.2757 15.7253C20.2607 15.6113 20.2007 15.5049 20.1069 15.4517C20.0656 15.4213 20.0019 15.3985 19.9494 15.3985C19.8668 15.3985 19.7918 15.4289 19.7393 15.4707C19.6681 15.5353 19.6231 15.6303 19.6156 15.7253V15.7557L19.4918 22.4702L19.5555 23.7052L19.6193 24.9097C19.6306 25.0883 19.7768 25.2365 19.9531 25.2365C20.1294 25.2365 20.2757 25.0883 20.2757 24.9097L20.4219 22.4702L20.2757 15.7253Z" fill="#2A3167"/>
<path d="M13.9372 17.3441C14.0422 17.3441 14.136 17.4277 14.136 17.5455L14.3347 22.4854L14.136 25.0617C14.136 25.1795 14.0422 25.2631 13.9372 25.2631C13.8209 25.2631 13.7384 25.1795 13.7271 25.0617L13.5621 22.4854L13.7271 17.5455C13.7384 17.4277 13.8209 17.3441 13.9372 17.3441Z" fill="#2A3167"/>
<path d="M13.1571 18.4499C13.1571 18.3435 13.0745 18.2599 12.9808 18.2599C12.8758 18.2599 12.8045 18.3435 12.7932 18.4499L12.6057 22.4626L12.7932 25.0579C12.8045 25.1643 12.8758 25.2479 12.9808 25.2479C13.0745 25.2479 13.1571 25.1643 13.1571 25.0579L13.3746 22.4626L13.1571 18.4499Z" fill="#2A3167"/>
<path d="M12.3957 22.4626L12.1782 19.9926C12.1669 19.909 12.0956 19.833 12.0131 19.833C11.9269 19.833 11.8556 19.909 11.8556 19.9926L11.6456 22.4626L11.8556 25.0579C11.8556 25.1529 11.9306 25.2251 12.0131 25.2251C12.0956 25.2251 12.1669 25.1529 12.1782 25.0579L12.3957 22.4626Z" fill="#2A3167"/>
<path d="M8.36381 21.1098C8.35255 21.0566 8.32255 21.0148 8.27004 21.0148C8.21753 21.0148 8.18753 21.0566 8.17628 21.1098L8 22.4626L8.17628 23.7926C8.18753 23.8458 8.21753 23.8876 8.27004 23.8876C8.32255 23.8876 8.35255 23.8458 8.36381 23.7926L8.57384 22.4626L8.36381 21.1098Z" fill="#2A3167"/>
<path d="M9.15518 20.1826C9.20769 20.1826 9.24894 20.2244 9.2602 20.2776L9.53024 22.4626L9.2602 24.6057C9.24894 24.6589 9.20769 24.7007 9.15518 24.7007C9.10267 24.7007 9.06141 24.6589 9.06141 24.5943L8.82138 22.4626L9.06141 20.2776C9.06141 20.2244 9.10267 20.1826 9.15518 20.1826Z" fill="#2A3167"/>
<path d="M10.2204 19.8748C10.2204 19.8026 10.1678 19.7494 10.1041 19.7494C10.0403 19.7494 9.98781 19.8026 9.98031 19.8748L9.76278 22.4626L9.98031 24.9629C9.99156 25.0275 10.0441 25.0807 10.1041 25.0807C10.1678 25.0807 10.2204 25.0275 10.2204 24.9629L10.4791 22.4626L10.2204 19.8748Z" fill="#2A3167"/>
<path d="M11.053 19.6658C11.1242 19.6658 11.188 19.719 11.1992 19.8026L11.4393 22.4626L11.1992 25.0389C11.188 25.1225 11.1242 25.1757 11.053 25.1757C10.9817 25.1757 10.918 25.1225 10.918 25.0389L10.7004 22.4626L10.918 19.8026C10.918 19.719 10.9817 19.6658 11.053 19.6658Z" fill="#2A3167"/>
<path d="M19.1055 16.0331C19.188 16.0863 19.2405 16.1813 19.2517 16.2877L19.3755 22.474L19.2592 24.7007L19.248 24.9553C19.248 25.0427 19.218 25.1149 19.1542 25.1681C19.1017 25.2213 19.0267 25.2631 18.9442 25.2631C18.8504 25.2631 18.7679 25.2175 18.7042 25.1453C18.6629 25.0921 18.6404 25.0313 18.6404 24.9667V24.9553C18.5241 22.474 18.5241 22.4626 18.5241 22.4626L18.6292 16.3523L18.6404 16.2877C18.6404 16.1813 18.6929 16.0863 18.7754 16.0331C18.8242 16.0027 18.8804 15.9799 18.9404 15.9799C19.0005 15.9799 19.053 16.0027 19.1055 16.0331Z" fill="#2A3167"/>
<path d="M15.1561 17.1199C15.1486 16.9945 15.0549 16.8881 14.9273 16.8881C14.8111 16.8881 14.7098 16.9945 14.7098 17.1199L14.5448 22.4626L14.7098 25.0161C14.721 25.1415 14.8148 25.2365 14.9273 25.2365C15.0511 25.2365 15.1449 25.1415 15.1561 25.0161L15.3436 22.4626L15.1561 17.1199Z" fill="#2A3167"/>
<path d="M17.9278 16.9831C18.0853 16.9831 18.1978 17.1085 18.2091 17.2795L18.3554 22.474L18.2091 24.9667C18.2091 25.1263 18.0853 25.2517 17.9278 25.2517C17.7703 25.2517 17.6465 25.1263 17.6353 24.9667L17.5115 22.474L17.6353 17.2795C17.6465 17.1085 17.7703 16.9831 17.9278 16.9831Z" fill="#2A3167"/>
<path d="M16.1688 16.9413C16.1575 16.8045 16.0525 16.6867 15.9175 16.6867C15.7937 16.6867 15.6774 16.8045 15.6774 16.9413L15.5312 22.4626L15.6774 25.0047C15.6887 25.1415 15.7937 25.2479 15.9175 25.2479C16.0525 25.2479 16.1575 25.1415 16.1688 25.0047L16.3338 22.4626L16.1688 16.9413Z" fill="#2A3167"/>
<path d="M16.9189 16.8159C17.0652 16.8159 17.1777 16.9299 17.1777 17.0781L17.3352 22.4626L17.1777 24.9857C17.1777 25.1301 17.0614 25.2479 16.9189 25.2479C16.7764 25.2479 16.6714 25.1339 16.6601 24.9857L16.5138 22.4626L16.6601 17.0781C16.6601 16.9337 16.7726 16.8159 16.9189 16.8159Z" fill="#2A3167"/>
</svg>
