<svg width="40" height="40" viewBox="0 0 40 40" fill="none" xmlns="http://www.w3.org/2000/svg">
<rect width="40" height="40" rx="20" fill="#EBEBE9"/>
<g clip-path="url(#clip0_126_5975)">
<path d="M20 8C13.3727 8 8 13.3722 8 20C8 26.6278 13.3727 32 20 32C26.6273 32 32 26.6278 32 20C32 13.3722 26.6273 8 20 8ZM25.8545 25.2987C25.6618 25.64 25.3073 25.832 24.9418 25.832C24.7709 25.832 24.5945 25.7893 24.4327 25.6993C22.9345 24.8593 21.3018 24.3447 19.5764 24.17C17.8473 23.9967 16.14 24.1722 14.5 24.6958C13.9527 24.8705 13.3636 24.5682 13.1891 24.02C13.0127 23.4709 13.3164 22.8838 13.8655 22.7082C15.7782 22.0971 17.7727 21.8893 19.7873 22.094C21.7982 22.2987 23.7036 22.8987 25.4527 23.8791C25.9564 24.1595 26.1364 24.7955 25.8545 25.2987ZM27.2909 21.6538C27.1055 22.0107 26.7418 22.2155 26.3655 22.2155C26.2018 22.2155 26.0382 22.178 25.8836 22.0971C24.0418 21.1378 22.0527 20.5438 19.9673 20.3322C17.8654 20.1171 15.7836 20.3045 13.7764 20.8835C13.2218 21.0409 12.6436 20.7238 12.4855 20.1695C12.3255 19.616 12.6454 19.0378 13.1982 18.878C15.4636 18.2247 17.8127 18.0155 20.1782 18.2555C22.5273 18.4947 24.7709 19.1638 26.8491 20.2467C27.3582 20.5131 27.5582 21.1429 27.2909 21.6538ZM27.8109 18.6215C27.6545 18.6215 27.4964 18.5862 27.3455 18.512C25.16 17.4222 22.8091 16.7435 20.3564 16.4945C17.9 16.2433 15.4564 16.4375 13.0909 17.0691C12.5345 17.2167 11.9636 16.8867 11.8145 16.3295C11.6655 15.7729 11.9964 15.2007 12.5546 15.0522C15.1636 14.3555 17.8618 14.1433 20.5691 14.4185C23.2727 14.6922 25.8655 15.4415 28.2764 16.6438C28.7927 16.9009 29.0018 17.528 28.7455 18.0433C28.5636 18.41 28.1945 18.6215 27.8109 18.6215Z" fill="#2A3167"/>
</g>
<defs>
<clipPath id="clip0_126_5975">
<rect x="8" y="8" width="24" height="24" rx="6" fill="white"/>
</clipPath>
</defs>
</svg>
