<svg width="40" height="40" viewBox="0 0 40 40" fill="none" xmlns="http://www.w3.org/2000/svg">
<rect width="40" height="40" rx="20" fill="#EBEBE9"/>
<path d="M25.1909 16.6635C26.7342 17.7706 28.6249 18.4221 30.6669 18.4221V14.4786C30.2805 14.4787 29.895 14.4382 29.5169 14.3579V17.4619C27.475 17.4619 25.5846 16.8105 24.0409 15.7034V23.7509C24.0409 27.7766 20.7889 31.0399 16.7777 31.0399C15.2811 31.0399 13.89 30.5858 12.7344 29.807C14.0533 31.1604 15.8926 32 17.9275 32C21.9389 32 25.191 28.7367 25.191 24.7108V16.6635H25.1909ZM26.6095 12.685C25.8208 11.8202 25.3029 10.7027 25.1909 9.46717V8.95996H24.1011C24.3754 10.5303 25.311 11.8719 26.6095 12.685ZM15.2715 26.7178C14.8308 26.1379 14.5926 25.4286 14.5937 24.6992C14.5937 22.858 16.0811 21.3651 17.9162 21.3651C18.2582 21.365 18.5981 21.4176 18.924 21.5214V17.4898C18.5431 17.4374 18.1587 17.4151 17.7745 17.4233V20.5613C17.4483 20.4575 17.1082 20.4048 16.7662 20.4051C14.9311 20.4051 13.4438 21.8979 13.4438 23.7393C13.4438 25.0414 14.1872 26.1687 15.2715 26.7178Z" fill="#2A3167"/>
<path d="M24.0406 15.7033C25.5844 16.8104 27.4748 17.4618 29.5167 17.4618V14.3578C28.3769 14.1141 27.3679 13.5164 26.6093 12.685C25.3107 11.8718 24.3751 10.5302 24.1008 8.95996H21.2382V24.7106C21.2318 26.5468 19.7469 28.0336 17.9158 28.0336C16.8367 28.0336 15.8781 27.5174 15.271 26.7178C14.1868 26.1687 13.4434 25.0413 13.4434 23.7394C13.4434 21.8981 14.9307 20.4052 16.7658 20.4052C17.1174 20.4052 17.4562 20.4602 17.7741 20.5614V17.4234C13.8334 17.5051 10.6641 20.7365 10.6641 24.7107C10.6641 26.6946 11.4533 28.493 12.7342 29.8071C13.8898 30.5858 15.2809 31.04 16.7776 31.04C20.7889 31.04 24.0407 27.7765 24.0407 23.7509V15.7033H24.0406Z" fill="#2A3167"/>
<path d="M29.5182 14.3578V13.5185C28.4904 13.52 27.4828 13.2312 26.6108 12.6849C27.3827 13.5331 28.3992 14.1179 29.5182 14.3578ZM24.1023 8.95998C24.0762 8.80991 24.0561 8.65885 24.0421 8.50721V8H20.0896V23.7508C20.0833 25.5868 18.5985 27.0736 16.7673 27.0736C16.2296 27.0736 15.722 26.9455 15.2725 26.7179C15.8796 27.5174 16.8382 28.0335 17.9173 28.0335C19.7482 28.0335 21.2333 26.5469 21.2397 24.7107V8.95998H24.1023ZM17.7758 17.4234V16.5299C17.4455 16.4846 17.1125 16.4619 16.7792 16.462C12.7675 16.4619 9.51562 19.7254 9.51562 23.7508C9.51562 26.2745 10.7937 28.4987 12.7358 29.807C11.4549 28.493 10.6656 26.6944 10.6656 24.7106C10.6656 20.7365 13.8349 17.5051 17.7758 17.4234Z" fill="#2A3167"/>
</svg>
